<svg width="78" height="12" viewBox="0 0 78 12" fill="none" xmlns="http://www.w3.org/2000/svg">
<path d="M11.5867 6.06296C11.5867 9.28447 8.99292 11.8961 5.79325 11.8961C2.59357 11.8961 0 9.28526 0 6.06296C0 2.84067 2.59377 0.22998 5.79325 0.22998C8.99272 0.22998 11.5867 2.84146 11.5867 6.06296ZM17.9422 6.06296C17.9422 9.09562 16.6452 11.5538 15.0454 11.5538C13.4457 11.5538 12.1487 9.09483 12.1487 6.06296C12.1487 3.0311 13.4457 0.572079 15.0454 0.572079C16.6452 0.572079 17.9422 3.0311 17.9422 6.06296ZM20.5416 6.06296C20.5416 8.78008 20.0854 10.9826 19.5228 10.9826C18.9602 10.9826 18.504 8.77929 18.504 6.06296C18.504 3.34664 18.9602 1.14336 19.523 1.14336C20.0858 1.14336 20.5416 3.34605 20.5416 6.06296ZM36.5306 0.735751L36.5467 0.73221V0.607292H33.252L30.1928 7.79746L27.1336 0.607292H23.5831V0.73221L23.5991 0.735751C24.2005 0.871488 24.5058 1.07391 24.5058 1.80395V10.3505C24.5058 11.0805 24.1993 11.283 23.5979 11.4187L23.582 11.4222V11.5476H25.9908V11.4226L25.9749 11.4191C25.3735 11.2834 25.0682 11.0809 25.0682 10.3509V2.29969L28.9981 11.5476H29.221L33.2654 2.04178V10.562C33.2138 11.1386 32.9113 11.3166 32.3668 11.4396L32.3506 11.4433V11.5672H36.5467V11.4433L36.5306 11.4396C35.9854 11.3166 35.6756 11.1386 35.6241 10.562L35.6213 1.80395H35.6241C35.6241 1.07391 35.9294 0.871488 36.5306 0.735751ZM38.4472 6.39739C38.5159 4.86178 39.0673 3.75346 39.9927 3.73437C40.2781 3.73909 40.5175 3.83273 40.7036 4.01293C41.099 4.39673 41.2849 5.19877 41.2562 6.39739H38.4472ZM38.4057 6.83018H43.3237V6.80952C43.3098 5.63529 42.9696 4.72191 42.3138 4.09477C41.7468 3.5528 40.9074 3.25457 40.0257 3.25457H40.006C39.5485 3.25457 38.9872 3.36552 38.5879 3.56657C38.1332 3.77706 37.7323 4.09182 37.3987 4.50493C36.8616 5.17044 36.5363 6.06985 36.4572 7.0806C36.4546 7.1109 36.4525 7.14119 36.4503 7.17149C36.4481 7.20178 36.4468 7.22893 36.4454 7.25785C36.4384 7.39996 36.436 7.54227 36.4383 7.68454C36.4916 9.97378 37.7282 11.8033 39.9246 11.8033C41.8525 11.8033 42.9751 10.394 43.2551 8.50231L43.1136 8.45254C42.6218 9.46919 41.7386 10.0853 40.7333 10.0102C39.361 9.90749 38.3103 8.51569 38.4057 6.83018ZM48.8843 9.93247C48.7229 10.3151 48.3864 10.5256 47.9353 10.5256C47.4842 10.5256 47.0719 10.2159 46.7789 9.65332C46.4642 9.04939 46.2986 8.19562 46.2986 7.18428C46.2986 5.07936 46.9532 3.71785 47.9666 3.71785C48.3909 3.71785 48.7249 3.92834 48.8843 4.29562V9.93247ZM52.1467 11.4331C51.5453 11.2908 51.24 11.079 51.24 10.3118V0.103882L47.5863 1.18034V1.31214L47.6087 1.31037C48.1127 1.26965 48.4546 1.33929 48.6531 1.52264C48.8085 1.66624 48.8843 1.88657 48.8843 2.1966V3.59608C48.5241 3.36611 48.0956 3.25418 47.5757 3.25418C46.5212 3.25418 45.5575 3.69818 44.8625 4.50454C44.138 5.34493 43.755 6.49339 43.755 7.82539C43.7548 10.2043 44.9258 11.8033 46.6688 11.8033C47.6884 11.8033 48.5087 11.2446 48.8843 10.3023V11.5672H52.1626V11.4362L52.1467 11.4331ZM55.2803 1.49214C55.2803 0.749325 54.7202 0.189062 53.9772 0.189062C53.2377 0.189062 52.6591 0.761521 52.6591 1.49214C52.6591 2.22277 53.2383 2.79523 53.9772 2.79523C54.7202 2.79523 55.2803 2.23496 55.2803 1.49214ZM56.1427 11.4331C55.5413 11.2908 55.236 11.079 55.236 10.3118H55.2334V3.27837L51.9549 4.21969V4.34755L51.9746 4.34932C52.6839 4.41247 52.8781 4.6568 52.8781 5.48578V11.5672H56.1594V11.4362L56.1427 11.4331ZM64.5437 11.4331C63.9423 11.2908 63.637 11.079 63.637 10.3118V3.27837L60.5154 4.1886V4.31687L60.5339 4.31883C61.1138 4.37982 61.2814 4.63811 61.2814 5.47083V9.91673C61.0881 10.2994 60.7253 10.5266 60.2858 10.5419C59.5731 10.5419 59.1807 10.0605 59.1807 9.18651V3.27857L55.9021 4.21988V4.34755L55.9218 4.34932C56.6311 4.41228 56.8255 4.6566 56.8255 5.48578V9.24847C56.8238 9.51114 56.8467 9.7734 56.8938 10.0318L56.9528 10.2885C57.2304 11.2832 57.9576 11.8033 59.097 11.8033C60.0622 11.8033 60.9081 11.2058 61.2807 10.271V11.5694H64.5592V11.4384L64.5437 11.4331ZM77.28 11.5672V11.436L77.2641 11.4323C76.6115 11.2818 76.3574 10.9981 76.3574 10.4205V5.63628C76.3574 4.14454 75.5195 3.25418 74.1161 3.25418C73.0932 3.25418 72.2306 3.84532 71.8985 4.76618C71.6347 3.79044 70.8755 3.25418 69.7531 3.25418C68.7671 3.25418 67.9944 3.7745 67.6629 4.65346V3.27896L64.3843 4.18172V4.31037L64.404 4.31214C65.1049 4.37431 65.3075 4.62572 65.3075 5.43346V11.5672H68.3666V11.4362L68.3504 11.4323C67.8299 11.3099 67.6619 11.0868 67.6619 10.5144V5.03057C67.7996 4.70893 68.0772 4.32788 68.6258 4.32788C69.3073 4.32788 69.6527 4.80001 69.6527 5.73011V11.5672H72.7125V11.4362L72.6964 11.4323C72.1759 11.3099 72.0079 11.0868 72.0079 10.5144V5.63569C72.0092 5.45327 71.9947 5.27108 71.9646 5.09116C72.1106 4.74159 72.4041 4.32788 72.9752 4.32788C73.6662 4.32788 74.002 4.78644 74.002 5.73011V11.5672H77.28Z" fill="white" fill-opacity="0.6"/>
</svg>
