<svg width="21" height="20" viewBox="0 0 21 20" fill="none" xmlns="http://www.w3.org/2000/svg">
<path d="M10.2147 0C4.69139 0 0.214722 4.4775 0.214722 10C0.214722 15.5225 4.69139 20 10.2147 20C15.7381 20 20.2147 15.5225 20.2147 10C20.2147 4.4775 15.7381 0 10.2147 0ZM18.4522 9.53417C16.3064 9.1825 14.3331 9.16333 12.5331 9.47333C12.3297 9.00417 12.1189 8.53583 11.8939 8.07333C13.8189 7.24 15.3647 6.10833 16.5172 4.67167C17.6422 6 18.3481 7.6875 18.4522 9.53417ZM15.2506 3.46583C14.2464 4.76083 12.8606 5.785 11.0956 6.5325C10.2489 4.98167 9.28055 3.46917 8.18889 2.00083C8.83805 1.83667 9.51472 1.73917 10.2147 1.73917C12.1106 1.73917 13.8547 2.38833 15.2506 3.46583ZM6.48722 2.63833C7.59639 4.09 8.57972 5.58667 9.43472 7.1225C7.40972 7.71833 4.99222 8.02417 2.19806 8.04333C2.77472 5.68083 4.36555 3.71583 6.48722 2.63833V2.63833ZM1.95389 10L1.96472 9.78667C5.17222 9.7825 7.93889 9.41333 10.2564 8.685C10.4506 9.08083 10.6364 9.47833 10.8147 9.87833C7.99805 10.7592 5.67722 12.5633 3.86722 15.2783C2.67389 13.8458 1.95389 12.0058 1.95389 10V10ZM5.14472 16.5083C6.78555 13.935 8.87972 12.26 11.4764 11.4858C12.2497 13.5025 12.8172 15.5775 13.1789 17.7025C10.3881 18.7783 7.38472 18.2575 5.14472 16.5083ZM14.7997 16.8667C14.4347 14.9058 13.8997 12.9892 13.1997 11.1192C14.7631 10.8983 16.4831 10.9558 18.3656 11.2825C18.0014 13.6042 16.6756 15.6092 14.7997 16.8667Z" fill="white"/>
</svg>
