<svg width="21" height="20" viewBox="0 0 21 20" fill="none" xmlns="http://www.w3.org/2000/svg">
<path d="M10.3383 20C3.63067 20 0 15.8139 0 10.4095C0 4.63427 4.08826 0 11.3977 0C16.7325 0 20.6044 3.46669 20.6044 8.24262C20.6044 15.722 11.7359 17.6966 12.1806 13.4298C11.5711 14.381 10.5889 15.4507 8.70106 15.4507C6.54104 15.4507 5.19832 13.8693 5.19832 11.3238C5.19832 7.50858 7.70604 4.28486 10.6748 4.28486C12.0991 4.28486 13.0786 5.03692 13.4882 6.19162L13.8865 4.79052H15.8937C15.6842 5.50481 13.9011 12.1111 13.9011 12.1111C13.3448 14.3999 15.0601 14.4402 16.5814 13.2246C19.4394 11.0096 19.5871 5.2172 15.7246 2.80134C11.5857 0.319368 2.16432 1.85525 2.16432 10.2644C2.16432 15.0816 5.55546 18.3182 10.6027 18.3182C13.5525 18.3182 15.3606 17.5197 16.8656 16.6458L17.876 18.1035C16.4071 18.9329 14.0462 20 10.3383 20ZM8.32589 7.71892C7.71205 8.86933 7.31542 10.3597 7.31542 11.517C7.31542 14.6162 10.3391 14.636 11.8243 11.7222C12.4356 10.5254 12.8297 8.99983 12.8297 7.83396C12.8297 5.32967 9.82915 4.88582 8.32589 7.71892V7.71892Z" fill="#88c0d0"/>
</svg>
