<svg width="26" height="20" viewBox="0 0 26 20" fill="current" xmlns="http://www.w3.org/2000/svg">
<path d="M25.2147 2.36772C24.3092 2.76969 23.3361 3.0404 22.3148 3.16243C23.3576 2.53794 24.1585 1.5484 24.5348 0.369155C23.5597 0.947498 22.4789 1.36792 21.3283 1.59454C20.4085 0.613208 19.0949 0 17.6429 0C14.3831 0 11.9877 3.04143 12.7239 6.19873C8.5289 5.98851 4.80864 3.97867 2.31786 0.923913C0.995059 3.19319 1.63185 6.16181 3.8796 7.66509C3.0531 7.63843 2.27377 7.41181 1.59391 7.03343C1.53854 9.37244 3.21512 11.5607 5.64334 12.0478C4.93271 12.2406 4.15441 12.2857 3.36278 12.1339C4.0047 14.1397 5.86893 15.5988 8.07976 15.6399C5.95712 17.3041 3.28279 18.0476 0.60437 17.7317C2.83878 19.1643 5.49362 20 8.34432 20C17.7188 20 23.0152 12.0826 22.6952 4.98154C23.6817 4.26887 24.5379 3.37982 25.2147 2.36772V2.36772Z" fill="#88c0d0"/>
</svg>
